<svg width="125" height="125" viewBox="0 0 125 125" fill="none" xmlns="http://www.w3.org/2000/svg">
<rect width="125" height="125" rx="62.5" fill="white"/>
<path d="M37.25 49.25C40.1167 45.9167 44.0833 44.25 49.15 44.25C54.2167 44.25 58.1667 45.9167 61 49.25C63.8667 52.5833 65.3 56.95 65.3 62.35C65.3 67.7833 63.8667 72.1667 61 75.5C58.1667 78.8333 54.2167 80.5 49.15 80.5C44.0833 80.5 40.1167 78.8333 37.25 75.5C34.3833 72.1667 32.95 67.7833 32.95 62.35C32.95 56.9167 34.3833 52.55 37.25 49.25ZM49.15 49.85C46.0167 49.85 43.6 50.9667 41.9 53.2C40.2 55.4 39.35 58.45 39.35 62.35C39.35 64.7833 39.6667 66.85 40.3 68.55L55.1 51.8C53.5 50.5 51.5167 49.85 49.15 49.85ZM49.15 74.9C52.2833 74.9 54.6833 73.8 56.35 71.6C58.05 69.3667 58.9 66.2833 58.9 62.35C58.9 59.9833 58.6 57.9333 58 56.2L43.15 72.9C44.75 74.2333 46.75 74.9 49.15 74.9ZM69.2176 59.4C72.4509 58.1333 74.7509 56.35 76.1176 54.05C77.4842 51.7167 78.1842 48.6167 78.2176 44.75H90.8676V80H84.4176V50.25L85.6176 46.4H83.9176C83.7509 48.8 83.4676 50.8667 83.0676 52.6C82.7009 54.3333 82.0842 56.0667 81.2176 57.8C80.3509 59.5 79.1009 60.9667 77.4676 62.2C75.8342 63.4 73.8176 64.3833 71.4176 65.15L69.2176 59.4Z" fill="#17161E"/>
</svg>
