<svg width="125" height="125" viewBox="0 0 125 125" fill="none" xmlns="http://www.w3.org/2000/svg">
<rect x="0.5" y="0.5" width="124" height="124" rx="62" fill="#17161E"/>
<rect x="0.5" y="0.5" width="124" height="124" rx="62" stroke="#838383"/>
<path d="M33.25 49.25C36.1167 45.9167 40.0833 44.25 45.15 44.25C50.2167 44.25 54.1667 45.9167 57 49.25C59.8667 52.5833 61.3 56.95 61.3 62.35C61.3 67.7833 59.8667 72.1667 57 75.5C54.1667 78.8333 50.2167 80.5 45.15 80.5C40.0833 80.5 36.1167 78.8333 33.25 75.5C30.3833 72.1667 28.95 67.7833 28.95 62.35C28.95 56.9167 30.3833 52.55 33.25 49.25ZM45.15 49.85C42.0167 49.85 39.6 50.9667 37.9 53.2C36.2 55.4 35.35 58.45 35.35 62.35C35.35 64.7833 35.6667 66.85 36.3 68.55L51.1 51.8C49.5 50.5 47.5167 49.85 45.15 49.85ZM45.15 74.9C48.2833 74.9 50.6833 73.8 52.35 71.6C54.05 69.3667 54.9 66.2833 54.9 62.35C54.9 59.9833 54.6 57.9333 54 56.2L39.15 72.9C40.75 74.2333 42.75 74.9 45.15 74.9ZM95.4594 67.7V73.3H91.3094V80H84.9094V73.3H66.3594V61.65C70.5927 60.55 74.0094 58.55 76.6094 55.65C79.2427 52.75 80.7594 49.1167 81.1594 44.75H87.5594C87.126 50.2833 85.276 54.9667 82.0094 58.8C78.776 62.6 74.126 65.4 68.0594 67.2V68.9L72.2094 67.7H84.9094V57.9H91.3094V67.7H95.4594Z" fill="#838383"/>
</svg>
