<svg width="126" height="125" viewBox="0 0 126 125" fill="none" xmlns="http://www.w3.org/2000/svg">
<rect x="0.666504" width="125" height="125" rx="62.5" fill="white"/>
<path d="M33.9165 49.25C36.7832 45.9167 40.7498 44.25 45.8165 44.25C50.8832 44.25 54.8332 45.9167 57.6665 49.25C60.5332 52.5833 61.9665 56.95 61.9665 62.35C61.9665 67.7833 60.5332 72.1667 57.6665 75.5C54.8332 78.8333 50.8832 80.5 45.8165 80.5C40.7498 80.5 36.7832 78.8333 33.9165 75.5C31.0498 72.1667 29.6165 67.7833 29.6165 62.35C29.6165 56.9167 31.0498 52.55 33.9165 49.25ZM45.8165 49.85C42.6832 49.85 40.2665 50.9667 38.5665 53.2C36.8665 55.4 36.0165 58.45 36.0165 62.35C36.0165 64.7833 36.3332 66.85 36.9665 68.55L51.7665 51.8C50.1665 50.5 48.1832 49.85 45.8165 49.85ZM45.8165 74.9C48.9498 74.9 51.3498 73.8 53.0165 71.6C54.7165 69.3667 55.5665 66.2833 55.5665 62.35C55.5665 59.9833 55.2665 57.9333 54.6665 56.2L39.8165 72.9C41.4165 74.2333 43.4165 74.9 45.8165 74.9ZM66.5259 61.25C66.5259 55.4833 67.9925 51.2167 70.9259 48.45C73.8925 45.65 77.7759 44.25 82.5759 44.25C86.6759 44.25 89.9592 45.2833 92.4259 47.35C94.8925 49.4167 96.1259 52.3333 96.1259 56.1C96.1259 57.7333 95.8759 59.25 95.3759 60.65C94.9092 62.0167 94.2759 63.2333 93.4759 64.3C92.6759 65.3333 91.6092 66.3 90.2759 67.2C88.9425 68.0667 87.5592 68.8167 86.1259 69.45C84.7259 70.05 83.0092 70.6333 80.9759 71.2C78.9759 71.7667 77.0425 72.25 75.1759 72.65C73.3425 73.05 71.1925 73.4667 68.7259 73.9V75.55L72.8759 74.4H96.1259V80H67.0259V68.75C67.7259 68.65 68.3092 68.5667 68.7759 68.5C69.2425 68.4333 70.0925 68.2833 71.3259 68.05C72.5592 67.8167 73.6259 67.6 74.5259 67.4C75.4259 67.1667 76.5592 66.85 77.9259 66.45C79.2925 66.0167 80.4592 65.5833 81.4259 65.15C82.4259 64.6833 83.4759 64.1333 84.5759 63.5C85.6759 62.8333 86.5759 62.1333 87.2759 61.4C87.9759 60.6667 88.5425 59.8333 88.9759 58.9C89.4425 57.9333 89.6759 56.9167 89.6759 55.85C89.6759 54.0167 89.0925 52.5667 87.9259 51.5C86.7925 50.4 85.0425 49.85 82.6759 49.85C79.4759 49.85 77.0592 50.75 75.4259 52.55C73.7925 54.35 72.9759 57.25 72.9759 61.25H66.5259Z" fill="#17161E"/>
</svg>
