<svg width="156" height="155" viewBox="0 0 156 155" fill="none" xmlns="http://www.w3.org/2000/svg">
<g filter="url(#filter0_d_1_105)">
<rect x="15.3335" y="11" width="125" height="125" rx="62.5" fill="#E3FE0F" shape-rendering="crispEdges"/>
<path d="M48.0835 60.25C50.9502 56.9167 54.9168 55.25 59.9835 55.25C65.0502 55.25 69.0002 56.9167 71.8335 60.25C74.7002 63.5833 76.1335 67.95 76.1335 73.35C76.1335 78.7833 74.7002 83.1667 71.8335 86.5C69.0002 89.8333 65.0502 91.5 59.9835 91.5C54.9168 91.5 50.9502 89.8333 48.0835 86.5C45.2168 83.1667 43.7835 78.7833 43.7835 73.35C43.7835 67.9167 45.2168 63.55 48.0835 60.25ZM59.9835 60.85C56.8502 60.85 54.4335 61.9667 52.7335 64.2C51.0335 66.4 50.1835 69.45 50.1835 73.35C50.1835 75.7833 50.5002 77.85 51.1335 79.55L65.9335 62.8C64.3335 61.5 62.3502 60.85 59.9835 60.85ZM59.9835 85.9C63.1168 85.9 65.5168 84.8 67.1835 82.6C68.8835 80.3667 69.7335 77.2833 69.7335 73.35C69.7335 70.9833 69.4335 68.9333 68.8335 67.2L53.9835 83.9C55.5835 85.2333 57.5835 85.9 59.9835 85.9ZM80.5429 77.55H86.9929C86.9929 80.6833 87.6929 82.8667 89.0929 84.1C90.4929 85.3 92.8595 85.9 96.1929 85.9C98.9929 85.9 101.01 85.4667 102.243 84.6C103.51 83.7333 104.143 82.3833 104.143 80.55C104.143 77.1833 102.26 75.5 98.4929 75.5H93.5929V69.9H98.4929C101.926 69.9 103.643 68.45 103.643 65.55C103.643 63.9833 103.076 62.8167 101.943 62.05C100.81 61.25 98.8929 60.85 96.1929 60.85C92.9595 60.85 90.6929 61.3667 89.3929 62.4C88.1262 63.4333 87.4929 65.15 87.4929 67.55H81.0429C81.0429 63.3833 82.3762 60.3 85.0429 58.3C87.7429 56.2667 91.4595 55.25 96.1929 55.25C100.46 55.25 103.843 56.0833 106.343 57.75C108.843 59.4167 110.093 61.7333 110.093 64.7C110.093 66.9667 109.426 68.6167 108.093 69.65C106.793 70.6833 104.876 71.4167 102.343 71.85V73.5C103.643 73.7333 104.71 73.9833 105.543 74.25C106.41 74.5167 107.26 74.9333 108.093 75.5C108.96 76.0333 109.593 76.7833 109.993 77.75C110.393 78.7167 110.593 79.9167 110.593 81.35C110.593 84.6167 109.276 87.1333 106.643 88.9C104.043 90.6333 100.56 91.5 96.1929 91.5C91.3595 91.5 87.5429 90.4 84.7429 88.2C81.9429 85.9667 80.5429 82.4167 80.5429 77.55Z" fill="#17161E"/>
</g>
<defs>
<filter id="filter0_d_1_105" x="0.333496" y="0" width="155" height="155" filterUnits="userSpaceOnUse" color-interpolation-filters="sRGB">
<feFlood flood-opacity="0" result="BackgroundImageFix"/>
<feColorMatrix in="SourceAlpha" type="matrix" values="0 0 0 0 0 0 0 0 0 0 0 0 0 0 0 0 0 0 127 0" result="hardAlpha"/>
<feOffset dy="4"/>
<feGaussianBlur stdDeviation="7.5"/>
<feComposite in2="hardAlpha" operator="out"/>
<feColorMatrix type="matrix" values="0 0 0 0 0.890196 0 0 0 0 0.996078 0 0 0 0 0.0588235 0 0 0 0.25 0"/>
<feBlend mode="normal" in2="BackgroundImageFix" result="effect1_dropShadow_1_105"/>
<feBlend mode="normal" in="SourceGraphic" in2="effect1_dropShadow_1_105" result="shape"/>
</filter>
</defs>
</svg>
